<?xml version="1.0" encoding="utf-8" ?>
<svg baseProfile="tiny" viewBox="0 0 1000 1500" version="1.2"  xmlns="http://www.w3.org/2000/svg" xmlns:ev="http://www.w3.org/2001/xml-events" xmlns:xlink="http://www.w3.org/1999/xlink">
    <defs>
        <style type="text/css">
            @import url('https://fonts.googleapis.com/css2?family=B612+Mono');
        </style>
        <style type="text/css">
            text{
                font-family: 'B612 Mono', monospace;
            }
            .starBox {
                stroke: black;
                stroke-width: 1px;
                fill: none;
            }
            .starDisc {
                stroke: black;
                stroke-width: 1px;
            }
            .starDiscW, .starDiscO {
                fill: #5189cf;
            }
            .starDiscB {
                fill: #c0d3ea;
            }
            .starDiscA {
                fill: #ffffff;
            }
            .starDiscF {
                fill: #f8f8c6;
            }
            .starDiscG {
                fill: #f8f800;
            }
            .starDiscK {
                fill: #f8bb00;
            }
            .starDiscM {
                fill: #f80000;
            }
            .planetOrbit {
                stroke: black;
                stroke-width: 1px;
                fill: none;
            }
        </style>
        <style type="text/css"><![CDATA[.starName{font-size:15px;}]]></style>
    </defs>
    <rect x="60.0" y="60.0" width="130.0" height="195.0" class="starBox"/><circle cx="125.0" cy="125.0" r="3.86009476702596" class="starDisc starDiscF"/><circle cx="125.0" cy="125.0" r="11.067906350399005" class="planetOrbit"/><text x="125.0" y="240.0" text-anchor="middle" class="starName">HD 114762</text><rect x="210.0" y="60.0" width="130.0" height="195.0" class="starBox"/><circle cx="275.0" cy="125.0" r="2.5" class="starDisc starDiscO"/><circle cx="275.0" cy="125.0" r="8.43279642152087" class="planetOrbit"/><circle cx="275.0" cy="125.0" r="11.067906350399005" class="planetOrbit"/><circle cx="275.0" cy="125.0" r="12.468068666218148" class="planetOrbit"/><text x="275.0" y="240.0" text-anchor="middle" class="starName">PSR B1257+12</text><rect x="360.0" y="60.0" width="130.0" height="195.0" class="starBox"/><circle cx="425.0" cy="125.0" r="3.86009476702596" class="starDisc starDiscG"/><circle cx="425.0" cy="125.0" r="6.013505088537498" class="planetOrbit"/><text x="425.0" y="240.0" text-anchor="middle" class="starName">51 Peg</text><rect x="510.0" y="60.0" width="130.0" height="195.0" class="starBox"/><circle cx="575.0" cy="125.0" r="3.804315996716895" class="starDisc starDiscG"/><circle cx="575.0" cy="125.0" r="24.30629816093782" class="planetOrbit"/><text x="575.0" y="240.0" text-anchor="middle" class="starName">16 Cyg B</text><rect x="660.0" y="60.0" width="130.0" height="195.0" class="starBox"/><circle cx="725.0" cy="125.0" r="3.8834586553204034" class="starDisc starDiscG"/><circle cx="725.0" cy="125.0" r="27.327101357560238" class="planetOrbit"/><circle cx="725.0" cy="125.0" r="35.11521139957293" class="planetOrbit"/><circle cx="725.0" cy="125.0" r="55.0" class="planetOrbit"/><text x="725.0" y="240.0" text-anchor="middle" class="starName">47 UMa</text><rect x="810.0" y="60.0" width="130.0" height="195.0" class="starBox"/><circle cx="875.0" cy="125.0" r="3.6431416455219057" class="starDisc starDiscG"/><circle cx="875.0" cy="125.0" r="7.152151177562896" class="planetOrbit"/><circle cx="875.0" cy="125.0" r="9.266896508854481" class="planetOrbit"/><circle cx="875.0" cy="125.0" r="41.9472700635142" class="planetOrbit"/><circle cx="875.0" cy="125.0" r="5.302364829394342" class="planetOrbit"/><circle cx="875.0" cy="125.0" r="16.467387762225865" class="planetOrbit"/><text x="875.0" y="240.0" text-anchor="middle" class="starName">55 Cnc</text><rect x="60.0" y="275.0" width="130.0" height="195.0" class="starBox"/><circle cx="125.0" cy="340.0" r="4.330675300367201" class="starDisc starDiscG"/><circle cx="125.0" cy="340.0" r="12.749892037640215" class="planetOrbit"/><text x="125.0" y="455.0" text-anchor="middle" class="starName">70 Vir</text><rect x="210.0" y="275.0" width="130.0" height="195.0" class="starBox"/><circle cx="275.0" cy="340.0" r="4.052784973651073" class="starDisc starDiscF"/><circle cx="275.0" cy="340.0" r="5.94402236981626" class="planetOrbit"/><text x="275.0" y="455.0" text-anchor="middle" class="starName">tau Boo</text><rect x="360.0" y="275.0" width="130.0" height="195.0" class="starBox"/><circle cx="425.0" cy="340.0" r="4.12151946003776" class="starDisc starDiscF"/><circle cx="425.0" cy="340.0" r="6.135389918413124" class="planetOrbit"/><circle cx="425.0" cy="340.0" r="16.90155881480019" class="planetOrbit"/><circle cx="425.0" cy="340.0" r="29.796828757908152" class="planetOrbit"/><text x="425.0" y="455.0" text-anchor="middle" class="starName">ups And</text><rect x="510.0" y="275.0" width="130.0" height="195.0" class="starBox"/><circle cx="575.0" cy="340.0" r="3.981197631485629" class="starDisc starDiscG"/><circle cx="575.0" cy="340.0" r="8.91765374290947" class="planetOrbit"/><circle cx="575.0" cy="340.0" r="11.81256690206899" class="planetOrbit"/><text x="575.0" y="455.0" text-anchor="middle" class="starName">rho CrB</text><rect x="660.0" y="275.0" width="130.0" height="195.0" class="starBox"/><circle cx="725.0" cy="340.0" r="2.952580292981206" class="starDisc starDiscM"/><circle cx="725.0" cy="340.0" r="8.734236891789564" class="planetOrbit"/><circle cx="725.0" cy="340.0" r="7.404682643068684" class="planetOrbit"/><circle cx="725.0" cy="340.0" r="5.406392170487884" class="planetOrbit"/><circle cx="725.0" cy="340.0" r="10.69142306564631" class="planetOrbit"/><text x="725.0" y="455.0" text-anchor="middle" class="starName">GJ 876</text><rect x="810.0" y="275.0" width="130.0" height="195.0" class="starBox"/><circle cx="875.0" cy="340.0" r="4.087494542706409" class="starDisc starDiscG"/><circle cx="875.0" cy="340.0" r="10.072478184913313" class="planetOrbit"/><circle cx="875.0" cy="340.0" r="31.537685702633425" class="planetOrbit"/><text x="875.0" y="455.0" text-anchor="middle" class="starName">HD 168443</text><rect x="60.0" y="490.0" width="130.0" height="195.0" class="starBox"/><circle cx="125.0" cy="555.0" r="2.5" class="starDisc starDiscG"/><circle cx="125.0" cy="555.0" r="5.823255432971653" class="planetOrbit"/><circle cx="125.0" cy="555.0" r="39.993452805701146" class="planetOrbit"/><text x="125.0" y="670.0" text-anchor="middle" class="starName">HD 187123</text><rect x="210.0" y="490.0" width="130.0" height="195.0" class="starBox"/><circle cx="275.0" cy="555.0" r="4.066752721076003" class="starDisc starDiscG"/><circle cx="275.0" cy="555.0" r="7.585713130407038" class="planetOrbit"/><text x="275.0" y="670.0" text-anchor="middle" class="starName">HD 195019</text><rect x="360.0" y="490.0" width="130.0" height="195.0" class="starBox"/><circle cx="425.0" cy="555.0" r="3.7550267183220694" class="starDisc starDiscG"/><circle cx="425.0" cy="555.0" r="19.921319227226945" class="planetOrbit"/><text x="425.0" y="670.0" text-anchor="middle" class="starName">HD 210277</text><rect x="510.0" y="490.0" width="130.0" height="195.0" class="starBox"/><circle cx="575.0" cy="555.0" r="3.7880422214722618" class="starDisc starDiscG"/><circle cx="575.0" cy="555.0" r="6.518750008133795" class="planetOrbit"/><circle cx="575.0" cy="555.0" r="41.383974554536856" class="planetOrbit"/><text x="575.0" y="670.0" text-anchor="middle" class="starName">HD 217107</text><rect x="660.0" y="490.0" width="130.0" height="195.0" class="starBox"/><circle cx="725.0" cy="555.0" r="3.484943932835292" class="starDisc starDiscK"/><circle cx="725.0" cy="555.0" r="7.0594416575288825" class="planetOrbit"/><text x="725.0" y="670.0" text-anchor="middle" class="starName">GJ 86</text><rect x="810.0" y="490.0" width="130.0" height="195.0" class="starBox"/><circle cx="875.0" cy="555.0" r="4.269929327058434" class="starDisc starDiscG"/><circle cx="875.0" cy="555.0" r="27.58010496001251" class="planetOrbit"/><text x="875.0" y="670.0" text-anchor="middle" class="starName">HD 10697</text><rect x="60.0" y="705.0" width="130.0" height="195.0" class="starBox"/><circle cx="125.0" cy="770.0" r="3.5611997687352224" class="starDisc starDiscK"/><circle cx="125.0" cy="770.0" r="6.745841244703371" class="planetOrbit"/><text x="125.0" y="885.0" text-anchor="middle" class="starName">HD 130322</text><rect x="210.0" y="705.0" width="130.0" height="195.0" class="starBox"/><circle cx="275.0" cy="770.0" r="3.875705800103766" class="starDisc starDiscG"/><circle cx="275.0" cy="770.0" r="16.70871830459867" class="planetOrbit"/><circle cx="275.0" cy="770.0" r="42.828571311734436" class="planetOrbit"/><text x="275.0" y="885.0" text-anchor="middle" class="starName">HD 134987</text><rect x="360.0" y="705.0" width="130.0" height="195.0" class="starBox"/><circle cx="425.0" cy="770.0" r="5.0" class="starDisc starDiscK"/><circle cx="425.0" cy="770.0" r="20.0137503596068" class="planetOrbit"/><circle cx="425.0" cy="770.0" r="13.18087196744897" class="planetOrbit"/><text x="425.0" y="885.0" text-anchor="middle" class="starName">HD 177830</text><rect x="510.0" y="705.0" width="130.0" height="195.0" class="starBox"/><circle cx="575.0" cy="770.0" r="3.4554559090992765" class="starDisc starDiscK"/><circle cx="575.0" cy="770.0" r="7.758063664232612" class="planetOrbit"/><text x="575.0" y="885.0" text-anchor="middle" class="starName">HD 192263</text><rect x="660.0" y="705.0" width="130.0" height="195.0" class="starBox"/><circle cx="725.0" cy="770.0" r="3.852235949870532" class="starDisc starDiscF"/><text x="725.0" y="885.0" text-anchor="middle" class="starName">HD 209458</text><rect x="810.0" y="705.0" width="130.0" height="195.0" class="starBox"/><circle cx="875.0" cy="770.0" r="3.804315996716895" class="starDisc starDiscG"/><circle cx="875.0" cy="770.0" r="21.77688752431555" class="planetOrbit"/><text x="875.0" y="885.0" text-anchor="middle" class="starName">HD 222582</text><rect x="60.0" y="920.0" width="130.0" height="195.0" class="starBox"/><circle cx="125.0" cy="985.0" r="3.8834586553204034" class="starDisc starDiscG"/><circle cx="125.0" cy="985.0" r="5.962825621058143" class="planetOrbit"/><text x="125.0" y="1100.0" text-anchor="middle" class="starName">HD 75289</text><rect x="210.0" y="920.0" width="130.0" height="195.0" class="starBox"/><circle cx="275.0" cy="985.0" r="2.5" class="starDisc starDiscF"/><circle cx="275.0" cy="985.0" r="17.84213368542446" class="planetOrbit"/><text x="275.0" y="1100.0" text-anchor="middle" class="starName">HD 89744</text><rect x="360.0" y="920.0" width="130.0" height="195.0" class="starBox"/><circle cx="425.0" cy="985.0" r="3.804315996716895" class="starDisc starDiscG"/><circle cx="425.0" cy="985.0" r="17.872992191611324" class="planetOrbit"/><text x="425.0" y="1100.0" text-anchor="middle" class="starName">HR 810</text><rect x="510.0" y="920.0" width="130.0" height="195.0" class="starBox"/><circle cx="575.0" cy="985.0" r="3.616257869471511" class="starDisc starDiscK"/><circle cx="575.0" cy="985.0" r="5.773981972452768" class="planetOrbit"/><text x="575.0" y="1100.0" text-anchor="middle" class="starName">BD-10 3166</text><rect x="660.0" y="920.0" width="130.0" height="195.0" class="starBox"/><circle cx="725.0" cy="985.0" r="3.607202691817132" class="starDisc starDiscG"/><circle cx="725.0" cy="985.0" r="12.869452212289586" class="planetOrbit"/><text x="725.0" y="1100.0" text-anchor="middle" class="starName">GJ 3021</text><rect x="810.0" y="920.0" width="130.0" height="195.0" class="starBox"/><circle cx="875.0" cy="985.0" r="3.86009476702596" class="starDisc starDiscK"/><circle cx="875.0" cy="985.0" r="17.03312030590766" class="planetOrbit"/><circle cx="875.0" cy="985.0" r="31.42008284442354" class="planetOrbit"/><text x="875.0" y="1100.0" text-anchor="middle" class="starName">HD 12661</text><rect x="60.0" y="1135.0" width="130.0" height="195.0" class="starBox"/><circle cx="125.0" cy="1200.0" r="2.5" class="starDisc starDiscG"/><circle cx="125.0" cy="1200.0" r="23.05839606097816" class="planetOrbit"/><circle cx="125.0" cy="1200.0" r="41.116763636636676" class="planetOrbit"/><circle cx="125.0" cy="1200.0" r="6.7176425656397445" class="planetOrbit"/><circle cx="125.0" cy="1200.0" r="17.883267646509104" class="planetOrbit"/><text x="125.0" y="1315.0" text-anchor="middle" class="starName">HD 160691</text><rect x="210.0" y="1135.0" width="130.0" height="195.0" class="starBox"/><circle cx="275.0" cy="1200.0" r="4.066752721076003" class="starDisc starDiscG"/><circle cx="275.0" cy="1200.0" r="11.067906350399005" class="planetOrbit"/><text x="275.0" y="1315.0" text-anchor="middle" class="starName">HD 16141</text><rect x="360.0" y="1135.0" width="130.0" height="195.0" class="starBox"/><circle cx="425.0" cy="1200.0" r="2.5" class="starDisc starDiscF"/><circle cx="425.0" cy="1200.0" r="16.70871830459867" class="planetOrbit"/><circle cx="425.0" cy="1200.0" r="35.11521139957293" class="planetOrbit"/><text x="425.0" y="1315.0" text-anchor="middle" class="starName">HD 169830</text><rect x="510.0" y="1135.0" width="130.0" height="195.0" class="starBox"/><circle cx="575.0" cy="1200.0" r="2.5" class="starDisc starDiscF"/><circle cx="575.0" cy="1200.0" r="5.855406303243947" class="planetOrbit"/><text x="575.0" y="1315.0" text-anchor="middle" class="starName">HD 179949</text><rect x="660.0" y="1135.0" width="130.0" height="195.0" class="starBox"/><circle cx="725.0" cy="1200.0" r="2.5" class="starDisc starDiscK"/><circle cx="725.0" cy="1200.0" r="21.186235436794483" class="planetOrbit"/><text x="725.0" y="1315.0" text-anchor="middle" class="starName">HD 27442</text><rect x="810.0" y="1135.0" width="130.0" height="195.0" class="starBox"/><circle cx="875.0" cy="1200.0" r="4.690346313271268" class="starDisc starDiscG"/><circle cx="875.0" cy="1200.0" r="7.401363051535251" class="planetOrbit"/><circle cx="875.0" cy="1200.0" r="35.28606970225974" class="planetOrbit"/><text x="875.0" y="1315.0" text-anchor="middle" class="starName">HD 38529</text><rect x="60.0" y="1350.0" width="130.0" height="195.0" class="starBox"/><circle cx="125.0" cy="1415.0" r="2.5" class="starDisc starDiscK"/><circle cx="125.0" cy="1415.0" r="5.770186605447066" class="planetOrbit"/><text x="125.0" y="1530.0" text-anchor="middle" class="starName">HD 46375</text><rect x="210.0" y="1350.0" width="130.0" height="195.0" class="starBox"/><circle cx="275.0" cy="1415.0" r="2.5" class="starDisc starDiscG"/><circle cx="275.0" cy="1415.0" r="13.2628342221458" class="planetOrbit"/><text x="275.0" y="1530.0" text-anchor="middle" class="starName">HD 52265</text><rect x="360.0" y="1350.0" width="130.0" height="195.0" class="starBox"/><circle cx="425.0" cy="1415.0" r="3.812395671357038" class="starDisc starDiscG"/><circle cx="425.0" cy="1415.0" r="18.380321177632595" class="planetOrbit"/><circle cx="425.0" cy="1415.0" r="53.1973024932382" class="planetOrbit"/><text x="425.0" y="1530.0" text-anchor="middle" class="starName">HD 92788</text><rect x="510.0" y="1350.0" width="130.0" height="195.0" class="starBox"/><circle cx="575.0" cy="1415.0" r="2.5" class="starDisc starDiscK"/><circle cx="575.0" cy="1415.0" r="34.19309877444425" class="planetOrbit"/><text x="575.0" y="1530.0" text-anchor="middle" class="starName">eps Eri</text><rect x="660.0" y="1350.0" width="130.0" height="195.0" class="starBox"/><circle cx="725.0" cy="1415.0" r="2.5" class="starDisc starDiscK"/><circle cx="725.0" cy="1415.0" r="20.197323875803953" class="planetOrbit"/><text x="725.0" y="1530.0" text-anchor="middle" class="starName">HD 114783</text><rect x="810.0" y="1350.0" width="130.0" height="195.0" class="starBox"/><circle cx="875.0" cy="1415.0" r="4.059782984798338" class="starDisc starDiscG"/><circle cx="875.0" cy="1415.0" r="18.874933803049053" class="planetOrbit"/><circle cx="875.0" cy="1415.0" r="45.536099709719586" class="planetOrbit"/><text x="875.0" y="1530.0" text-anchor="middle" class="starName">HD 142</text><rect x="60.0" y="1565.0" width="130.0" height="195.0" class="starBox"/><circle cx="125.0" cy="1630.0" r="3.763340023000086" class="starDisc starDiscG"/><circle cx="125.0" cy="1630.0" r="10.775545289211092" class="planetOrbit"/><text x="125.0" y="1745.0" text-anchor="middle" class="starName">HD 178911 B</text><rect x="210.0" y="1565.0" width="130.0" height="195.0" class="starBox"/><circle cx="275.0" cy="1630.0" r="4.087494542706409" class="starDisc starDiscG"/><circle cx="275.0" cy="1630.0" r="25.94284715278824" class="planetOrbit"/><text x="275.0" y="1745.0" text-anchor="middle" class="starName">HD 213240</text><rect x="360.0" y="1565.0" width="130.0" height="195.0" class="starBox"/><circle cx="425.0" cy="1630.0" r="3.7550267183220694" class="starDisc starDiscF"/><circle cx="425.0" cy="1630.0" r="23.85607306611804" class="planetOrbit"/><text x="425.0" y="1745.0" text-anchor="middle" class="starName">HD 23079</text><rect x="510.0" y="1565.0" width="130.0" height="195.0" class="starBox"/><circle cx="575.0" cy="1630.0" r="3.7213669697426637" class="starDisc starDiscG"/><circle cx="575.0" cy="1630.0" r="18.874933803049053" class="planetOrbit"/><text x="575.0" y="1745.0" text-anchor="middle" class="starName">HD 28185</text><rect x="660.0" y="1565.0" width="130.0" height="195.0" class="starBox"/><circle cx="725.0" cy="1630.0" r="3.7798473966446986" class="starDisc starDiscG"/><circle cx="725.0" cy="1630.0" r="32.8444320160472" class="planetOrbit"/><circle cx="725.0" cy="1630.0" r="6.305460899171267" class="planetOrbit"/><text x="725.0" y="1745.0" text-anchor="middle" class="starName">HD 39091</text><rect x="810.0" y="1565.0" width="130.0" height="195.0" class="starBox"/><circle cx="875.0" cy="1630.0" r="4.024505530768816" class="starDisc starDiscG"/><circle cx="875.0" cy="1630.0" r="20.288474202686984" class="planetOrbit"/><circle cx="875.0" cy="1630.0" r="45.91199699280735" class="planetOrbit"/><text x="875.0" y="1745.0" text-anchor="middle" class="starName">HD 4203</text><rect x="60.0" y="1780.0" width="130.0" height="195.0" class="starBox"/><circle cx="125.0" cy="1845.0" r="3.5611997687352224" class="starDisc starDiscG"/><circle cx="125.0" cy="1845.0" r="24.321130187705425" class="planetOrbit"/><text x="125.0" y="1960.0" text-anchor="middle" class="starName">HD 4208</text><rect x="210.0" y="1780.0" width="130.0" height="195.0" class="starBox"/><circle cx="275.0" cy="1845.0" r="3.852235949870532" class="starDisc starDiscG"/><circle cx="275.0" cy="1845.0" r="6.335176491936647" class="planetOrbit"/><text x="275.0" y="1960.0" text-anchor="middle" class="starName">HD 68988</text>
</svg>
