<?xml version="1.0" encoding="utf-8" ?>
<svg viewBox="0 0 1000 1280.0"  version="1.2" height="1280.0" width="auto" xmlns="http://www.w3.org/2000/svg" >
    <defs>
        <style type="text/css">
            @import url('https://fonts.googleapis.com/css2?family=B612+Mono');
        </style>
        <style type="text/css">
            text{
                font-family: 'B612 Mono', monospace;
                fill: white;
            }
            .mainTitle {
                font-size: 25px;
            }
            .subTitle {
                font-size: 10px;
            }
            .linkText {
                font-size: 10px;
            }
            .starName {
                font-size: 10px;
            }
            .starName.longName {
                font-size: 6px;
            }
            svg {
                background-color: black;
            }
            .starBox {
                stroke: #444;
                stroke-width: 1px;
            }
            .starDiscW, .starDiscO {
                fill: #5189cf;
            }
            .starDiscB {
                fill: #c0d3ea;
            }
            .starDiscA {
                fill: #ffffff;
            }
            .starDiscF {
                fill: #f8f8c6;
            }
            .starDiscG {
                fill: #f8f800;
            }
            .starDiscK {
                fill: #f8bb00;
            }
            .starDiscM {
                fill: #f80000;
            }
            .planetOrbit {
                stroke: #888;
                stroke-width: 0.5px;
                fill: none;
            }
            .planetAnnualTravel {
                stroke: white;
                stroke-width: 0.5px;
                fill: none;
            }
            .planetDisc {
                stroke: white;
                fill: black;
                stroke-width: 1px;
            }
        </style>
        <style type="text/css"><![CDATA[]]></style>
    </defs>
    <text x="50%" y="50px" text-anchor="middle" class="mainTitle">Planetary Systems</text>
    <text x="50%" y="75px" text-anchor="middle" class="subTitle">The First 100 Planetary Systems Discovered by Humanity</text>
    <rect x="50.0" y="100.0" width="90.0" height="108.0" class="starBox"/><circle cx="95.0" cy="145.0" r="3.049713934120049" class="starDisc starDiscG"/><circle cx="95.0" cy="145.0" r="8.335353830316501" class="planetAnnualTravel"/><circle cx="95.0" cy="145.0" r="10.529210832020812" class="planetAnnualTravel"/><circle cx="95.0" cy="145.0" r="12.066909898326662" class="planetAnnualTravel"/><circle cx="95.0" cy="145.0" r="14.394825431375594" class="planetOrbit"/><path d="M 105.17867867652225 134.82132132347775 A 14.394825431375594 14.394825431375594 0 1 0 87.00608459364621 156.9711451280083" class="planetAnnualTravel"/><circle cx="95.0" cy="145.0" r="23.58060242100894" class="planetOrbit"/><path d="M 95.0 121.41939757899107 A 23.58060242100894 23.58060242100894 0 0 0 83.08893236988311 124.64880154761212" class="planetAnnualTravel"/><circle cx="95.0" cy="145.0" r="29.024534601596663" class="planetOrbit"/><path d="M 74.47655476242741 124.47655476242741 A 29.024534601596663 29.024534601596663 0 0 0 70.59563009759644 129.28852844237875" class="planetAnnualTravel"/><circle cx="95.0" cy="145.0" r="35.6173385448525" class="planetOrbit"/><path d="M 59.3826614551475 145.0 A 35.6173385448525 35.6173385448525 0 0 0 59.48271740850304 147.66785350691958" class="planetAnnualTravel"/><circle cx="95.0" cy="145.0" r="40.0" class="planetOrbit"/><path d="M 66.7157287525381 173.2842712474619 A 40.0 40.0 0 0 0 67.44099880525235 173.99140309036278" class="planetAnnualTravel"/><circle cx="95.0" cy="153.3353538303165" r="1.3456218631433294" class="planetDisc"/><circle cx="102.44527637986477" cy="152.44527637986477" r="1.712879530815255" class="planetDisc"/><circle cx="107.06690989832666" cy="145.0" r="1.740473966569604" class="planetDisc"/><circle cx="105.17867867652225" cy="134.82132132347775" r="1.455699746725816" class="planetDisc"/><circle cx="95.0" cy="121.41939757899107" r="3.6730170779993982" class="planetDisc"/><circle cx="74.47655476242741" cy="124.47655476242741" r="3.50672131619571" class="planetDisc"/><circle cx="59.3826614551475" cy="145.0" r="2.720821849941454" class="planetDisc"/><circle cx="66.7157287525381" cy="173.2842712474619" r="2.6940324811475564" class="planetDisc"/><text x="95.0" y="198.0" text-anchor="middle" class="starName">Sol</text><rect x="140.0" y="100.0" width="90.0" height="108.0" class="starBox"/><circle cx="185.0" cy="145.0" r="3.1253015371159956" class="starDisc starDiscF"/><circle cx="185.0" cy="145.0" r="8.134928236276567" class="planetAnnualTravel"/><circle cx="191.8453060743212" cy="149.39532048413207" r="1.740473966569604" class="planetDisc"/><text x="185.0" y="198.0" text-anchor="middle" class="starName">HD 114762</text><rect x="230.0" y="100.0" width="90.0" height="108.0" class="starBox"/><circle cx="275.0" cy="145.0" r="2.5" class="starDisc starDiscO"/><circle cx="275.0" cy="145.0" r="6.773522828101538" class="planetAnnualTravel"/><circle cx="275.0" cy="145.0" r="8.134928236276567" class="planetAnnualTravel"/><circle cx="275.0" cy="145.0" r="8.858309271803456" class="planetAnnualTravel"/><circle cx="281.15914687813773" cy="142.18121990280568" r="1.740473966569604" class="planetDisc"/><circle cx="268.3696881957915" cy="140.28661238721625" r="1.740473966569604" class="planetDisc"/><circle cx="274.1650602256043" cy="153.8188728717479" r="1.740473966569604" class="planetDisc"/><text x="275.0" y="198.0" text-anchor="middle" class="starName">PSR B1257+12</text><rect x="320.0" y="100.0" width="90.0" height="108.0" class="starBox"/><circle cx="365.0" cy="145.0" r="3.1253015371159956" class="starDisc starDiscG"/><circle cx="365.0" cy="145.0" r="5.523618120681322" class="planetAnnualTravel"/><circle cx="365.7794930337102" cy="139.53165950643924" r="1.740473966569604" class="planetDisc"/><text x="365.0" y="198.0" text-anchor="middle" class="starName">51 Peg</text><rect x="410.0" y="100.0" width="90.0" height="108.0" class="starBox"/><circle cx="455.0" cy="145.0" r="3.1360430498529848" class="starDisc starDiscG"/><circle cx="455.0" cy="145.0" r="16.535092408837507" class="planetOrbit"/><path d="M 442.4862008048446 134.19194232657304 A 16.535092408837507 16.535092408837507 0 0 0 452.4348675730678 161.33491281277915" class="planetAnnualTravel"/><circle cx="455.0" cy="145.0" r="20.558748125990952" class="planetOrbit"/><path d="M 451.14172466890165 165.1934602279395 A 20.558748125990952 20.558748125990952 0 0 0 469.31719434189966 159.75398490863446" class="planetAnnualTravel"/><circle cx="455.0" cy="145.0" r="30.832042019488522" class="planetOrbit"/><path d="M 484.12003826256864 134.86894937935642 A 30.832042019488522 30.832042019488522 0 0 0 482.078377571946 130.25631378648347" class="planetAnnualTravel"/><circle cx="442.4862008048446" cy="134.19194232657304" r="1.740473966569604" class="planetDisc"/><circle cx="451.14172466890165" cy="165.1934602279395" r="1.740473966569604" class="planetDisc"/><circle cx="484.12003826256864" cy="134.86894937935642" r="1.740473966569604" class="planetDisc"/><text x="455.0" y="198.0" text-anchor="middle" class="starName">47 UMa</text><rect x="500.0" y="100.0" width="90.0" height="108.0" class="starBox"/><circle cx="545.0" cy="145.0" r="3.341650234257572" class="starDisc starDiscG"/><circle cx="545.0" cy="145.0" r="9.003910735256431" class="planetAnnualTravel"/><circle cx="536.3659314290626" cy="147.55406899687864" r="1.740473966569604" class="planetDisc"/><text x="545.0" y="198.0" text-anchor="middle" class="starName">70 Vir</text><rect x="590.0" y="100.0" width="90.0" height="108.0" class="starBox"/><circle cx="635.0" cy="145.0" r="3.0255576636392663" class="starDisc starDiscG"/><circle cx="635.0" cy="145.0" r="6.111889193021929" class="planetAnnualTravel"/><circle cx="635.0" cy="145.0" r="7.204452998190757" class="planetAnnualTravel"/><circle cx="635.0" cy="145.0" r="24.088468655721783" class="planetOrbit"/><path d="M 654.0401476070193 130.24442135053297 A 24.088468655721783 24.088468655721783 0 0 0 645.177240235789 123.167040893165" class="planetAnnualTravel"/><circle cx="635.0" cy="145.0" r="5.1562140195626025" class="planetAnnualTravel"/><circle cx="635.0" cy="145.0" r="10.92452085055174" class="planetAnnualTravel"/><circle cx="633.2922434361951" cy="150.86845439843913" r="1.740473966569604" class="planetDisc"/><circle cx="640.9568727888573" cy="149.05213642175477" r="1.740473966569604" class="planetDisc"/><circle cx="654.0401476070193" cy="130.24442135053297" r="1.740473966569604" class="planetDisc"/><circle cx="633.2555391147911" cy="140.14784591799582" r="2.141084564880539" class="planetDisc"/><circle cx="624.0807191471428" cy="145.3383215490682" r="1.740473966569604" class="planetDisc"/><text x="635.0" y="198.0" text-anchor="middle" class="starName">55 Cnc</text><rect x="680.0" y="100.0" width="90.0" height="108.0" class="starBox"/><circle cx="725.0" cy="145.0" r="3.2138905717266857" class="starDisc starDiscF"/><circle cx="725.0" cy="145.0" r="5.487720510488615" class="planetAnnualTravel"/><circle cx="728.6053588329053" cy="149.13720486406336" r="1.740473966569604" class="planetDisc"/><text x="725.0" y="198.0" text-anchor="middle" class="starName">tau Boo</text><rect x="770.0" y="100.0" width="90.0" height="108.0" class="starBox"/><circle cx="815.0" cy="145.0" r="3.2454911491514893" class="starDisc starDiscF"/><circle cx="815.0" cy="145.0" r="5.58658880161903" class="planetAnnualTravel"/><circle cx="815.0" cy="145.0" r="11.14883134802665" class="planetAnnualTravel"/><circle cx="815.0" cy="145.0" r="17.811054448486896" class="planetOrbit"/><path d="M 808.4335558494516 161.5564329426569 A 17.811054448486896 17.811054448486896 0 0 0 832.6064560151353 147.6919077164845" class="planetAnnualTravel"/><circle cx="820.5271377013756" cy="144.18715114048962" r="1.740473966569604" class="planetDisc"/><circle cx="808.08007815116" cy="136.25865444953192" r="1.740473966569604" class="planetDisc"/><circle cx="808.4335558494516" cy="161.5564329426569" r="1.740473966569604" class="planetDisc"/><text x="815.0" y="198.0" text-anchor="middle" class="starName">ups And</text><rect x="860.0" y="100.0" width="90.0" height="108.0" class="starBox"/><circle cx="905.0" cy="145.0" r="3.099657330801633" class="starDisc starDiscG"/><circle cx="905.0" cy="145.0" r="14.974422106682397" class="planetOrbit"/><path d="M 911.1712361559767 131.35635086436676 A 14.974422106682397 14.974422106682397 0 0 0 895.4188566714008 156.50804109941993" class="planetAnnualTravel"/><circle cx="911.1712361559767" cy="131.35635086436676" r="1.740473966569604" class="planetDisc"/><text x="905.0" y="198.0" text-anchor="middle" class="starName">16 Cyg B</text><rect x="50.0" y="208.0" width="90.0" height="108.0" class="starBox"/><circle cx="95.0" cy="253.0" r="3.180978398119855" class="starDisc starDiscG"/><circle cx="95.0" cy="253.0" r="7.0240199220928785" class="planetAnnualTravel"/><circle cx="95.0" cy="253.0" r="8.51965028949646" class="planetAnnualTravel"/><circle cx="91.17878487907397" cy="247.10634486370606" r="1.740473966569604" class="planetDisc"/><circle cx="99.6348696148808" cy="260.1485959956044" r="1.740473966569604" class="planetDisc"/><text x="95.0" y="306.0" text-anchor="middle" class="starName">rho CrB</text><rect x="140.0" y="208.0" width="90.0" height="108.0" class="starBox"/><circle cx="185.0" cy="253.0" r="2.7080731135289735" class="starDisc starDiscM"/><circle cx="185.0" cy="253.0" r="6.929259285988644" class="planetAnnualTravel"/><circle cx="185.0" cy="253.0" r="6.242357261585699" class="planetAnnualTravel"/><circle cx="185.0" cy="253.0" r="5.209958792488683" class="planetAnnualTravel"/><circle cx="185.0" cy="253.0" r="7.940421595649234" class="planetAnnualTravel"/><circle cx="178.07080857536084" cy="253.03066680888068" r="1.740473966569604" class="planetDisc"/><circle cx="185.0276267879733" cy="259.2422961273764" r="1.740473966569604" class="planetDisc"/><circle cx="190.2099077690214" cy="252.97694229585426" r="1.740473966569604" class="planetDisc"/><circle cx="184.96485809211987" cy="245.05965616846706" r="1.740473966569604" class="planetDisc"/><text x="185.0" y="306.0" text-anchor="middle" class="starName">GJ 876</text><rect x="230.0" y="208.0" width="90.0" height="108.0" class="starBox"/><circle cx="275.0" cy="253.0" r="2.5" class="starDisc starDiscG"/><circle cx="275.0" cy="253.0" r="5.425327378745919" class="planetAnnualTravel"/><circle cx="275.0" cy="253.0" r="23.07904686567721" class="planetOrbit"/><path d="M 287.3835915213852 233.5246549386256 A 23.07904686567721 23.07904686567721 0 0 0 274.1794396910694 229.9355449878491" class="planetAnnualTravel"/><circle cx="272.08891625727864" cy="257.57818398597453" r="1.740473966569604" class="planetDisc"/><circle cx="287.3835915213852" cy="233.5246549386256" r="1.740473966569604" class="planetDisc"/><text x="275.0" y="306.0" text-anchor="middle" class="starName">HD 187123</text><rect x="320.0" y="208.0" width="90.0" height="108.0" class="starBox"/><circle cx="365.0" cy="253.0" r="3.2203122227370446" class="starDisc starDiscG"/><circle cx="365.0" cy="253.0" r="6.335885004700356" class="planetAnnualTravel"/><circle cx="367.6621300280993" cy="258.7494784551539" r="1.740473966569604" class="planetDisc"/><text x="365.0" y="306.0" text-anchor="middle" class="starName">HD 195019</text><rect x="410.0" y="208.0" width="90.0" height="108.0" class="starBox"/><circle cx="455.0" cy="253.0" r="3.092175486946443" class="starDisc starDiscG"/><circle cx="455.0" cy="253.0" r="5.784648280544214" class="planetAnnualTravel"/><circle cx="455.0" cy="253.0" r="23.797447190575944" class="planetOrbit"/><path d="M 431.42607376625523 249.7460032707128 A 23.797447190575944 23.797447190575944 0 0 0 433.0803613674158 262.26541607296576" class="planetAnnualTravel"/><circle cx="460.7303151368148" cy="253.79097671419234" r="1.740473966569604" class="planetDisc"/><circle cx="431.42607376625523" cy="249.7460032707128" r="1.740473966569604" class="planetDisc"/><text x="455.0" y="306.0" text-anchor="middle" class="starName">HD 217107</text><rect x="500.0" y="208.0" width="90.0" height="108.0" class="starBox"/><circle cx="545.0" cy="253.0" r="3.2298482442426932" class="starDisc starDiscG"/><circle cx="545.0" cy="253.0" r="7.620649392312392" class="planetAnnualTravel"/><circle cx="545.0" cy="253.0" r="18.710452243408128" class="planetOrbit"/><path d="M 532.8328204222712 267.2141044134394 A 18.710452243408128 18.710452243408128 0 0 0 555.6057089248677 268.41427784081486" class="planetAnnualTravel"/><circle cx="549.9556156339215" cy="247.21068476852537" r="1.740473966569604" class="planetDisc"/><circle cx="532.8328204222712" cy="267.2141044134394" r="1.740473966569604" class="planetDisc"/><text x="545.0" y="306.0" text-anchor="middle" class="starName">HD 168443</text><rect x="590.0" y="208.0" width="90.0" height="108.0" class="starBox"/><circle cx="635.0" cy="253.0" r="3.076996658699338" class="starDisc starDiscG"/><circle cx="635.0" cy="253.0" r="12.708962905278568" class="planetOrbit"/><path d="M 631.341047428197 240.82914118868175 A 12.708962905278568 12.708962905278568 0 1 0 644.1590255970926 244.18921182642845" class="planetAnnualTravel"/><circle cx="631.341047428197" cy="240.82914118868175" r="1.740473966569604" class="planetDisc"/><text x="635.0" y="306.0" text-anchor="middle" class="starName">HD 210277</text><rect x="680.0" y="208.0" width="90.0" height="108.0" class="starBox"/><circle cx="725.0" cy="253.0" r="3.121688457670106" class="starDisc starDiscF"/><circle cx="725.0" cy="253.0" r="12.066909898326662" class="planetAnnualTravel"/><circle cx="713.3989030890122" cy="249.67962879240858" r="3.9999999999999996" class="planetDisc"/><text x="725.0" y="306.0" text-anchor="middle" class="starName">HD 209458</text><rect x="770.0" y="208.0" width="90.0" height="108.0" class="starBox"/><circle cx="815.0" cy="253.0" r="3.099657330801633" class="starDisc starDiscG"/><circle cx="815.0" cy="253.0" r="11.650713504205026" class="planetAnnualTravel"/><circle cx="806.2504627425515" cy="260.69316078979153" r="1.740473966569604" class="planetDisc"/><text x="815.0" y="306.0" text-anchor="middle" class="starName">HR 810</text><rect x="860.0" y="208.0" width="90.0" height="108.0" class="starBox"/><circle cx="905.0" cy="253.0" r="2.9528265015839343" class="starDisc starDiscK"/><circle cx="905.0" cy="253.0" r="6.0639916686794235" class="planetAnnualTravel"/><circle cx="905.908854150721" cy="258.9954965674688" r="1.740473966569604" class="planetDisc"/><text x="905.0" y="306.0" text-anchor="middle" class="starName">GJ 86</text><rect x="50.0" y="316.0" width="90.0" height="108.0" class="starBox"/><circle cx="95.0" cy="361.0" r="2.98788500821032" class="starDisc starDiscK"/><circle cx="95.0" cy="361.0" r="5.901972887850673" class="planetAnnualTravel"/><circle cx="100.3881781178865" cy="363.40848926484085" r="1.740473966569604" class="planetDisc"/><text x="95.0" y="414.0" text-anchor="middle" class="starName">HD 130322</text><rect x="140.0" y="316.0" width="90.0" height="108.0" class="starBox"/><circle cx="185.0" cy="361.0" r="2.9392694267273325" class="starDisc starDiscK"/><circle cx="185.0" cy="361.0" r="6.424928329337627" class="planetAnnualTravel"/><circle cx="190.37545251393036" cy="357.480878759178" r="1.740473966569604" class="planetDisc"/><text x="185.0" y="414.0" text-anchor="middle" class="starName">HD 192263</text><rect x="230.0" y="316.0" width="90.0" height="108.0" class="starBox"/><circle cx="275.0" cy="361.0" r="3.1360430498529848" class="starDisc starDiscG"/><circle cx="275.0" cy="361.0" r="5.497435038012282" class="planetAnnualTravel"/><circle cx="274.9513405021747" cy="355.50278031633843" r="1.740473966569604" class="planetDisc"/><text x="275.0" y="414.0" text-anchor="middle" class="starName">HD 75289</text><rect x="320.0" y="316.0" width="90.0" height="108.0" class="starBox"/><circle cx="365.0" cy="361.0" r="2.5" class="starDisc starDiscF"/><circle cx="365.0" cy="361.0" r="11.634770739635472" class="planetAnnualTravel"/><circle cx="355.15441960222023" cy="354.8006099659134" r="1.740473966569604" class="planetDisc"/><text x="365.0" y="414.0" text-anchor="middle" class="starName">HD 89744</text><rect x="410.0" y="316.0" width="90.0" height="108.0" class="starBox"/><circle cx="455.0" cy="361.0" r="3.3137223637852533" class="starDisc starDiscG"/><circle cx="455.0" cy="361.0" r="16.665804402630087" class="planetOrbit"/><path d="M 439.90780814754345 368.0692843679802 A 16.665804402630087 16.665804402630087 0 0 0 469.01704178654364 370.01507492708816" class="planetAnnualTravel"/><circle cx="439.90780814754345" cy="368.0692843679802" r="1.740473966569604" class="planetDisc"/><text x="455.0" y="414.0" text-anchor="middle" class="starName">HD 10697</text><rect x="500.0" y="316.0" width="90.0" height="108.0" class="starBox"/><circle cx="545.0" cy="361.0" r="3.132478686250144" class="starDisc starDiscG"/><circle cx="545.0" cy="361.0" r="11.049202064774946" class="planetAnnualTravel"/><circle cx="545.0" cy="361.0" r="24.54378487323884" class="planetOrbit"/><path d="M 548.2484128819964 336.6721314198735 A 24.54378487323884 24.54378487323884 0 0 0 537.1412962369361 337.7483731522237" class="planetAnnualTravel"/><circle cx="543.5376187695431" cy="371.95200015545265" r="1.740473966569604" class="planetDisc"/><circle cx="548.2484128819964" cy="336.6721314198735" r="1.740473966569604" class="planetDisc"/><text x="545.0" y="414.0" text-anchor="middle" class="starName">HD 134987</text><rect x="590.0" y="316.0" width="90.0" height="108.0" class="starBox"/><circle cx="635.0" cy="361.0" r="3.2203122227370446" class="starDisc starDiscG"/><circle cx="635.0" cy="361.0" r="8.134928236276567" class="planetAnnualTravel"/><circle cx="641.2033582706179" cy="366.26264226180416" r="1.740473966569604" class="planetDisc"/><text x="635.0" y="414.0" text-anchor="middle" class="starName">HD 16141</text><rect x="680.0" y="316.0" width="90.0" height="108.0" class="starBox"/><circle cx="725.0" cy="361.0" r="3.6493712649216823" class="starDisc starDiscK"/><circle cx="725.0" cy="361.0" r="12.756716603189474" class="planetOrbit"/><path d="M 737.2002166847685 357.27326800818906 A 12.756716603189474 12.756716603189474 0 1 0 736.7767627458181 365.9032313552188" class="planetAnnualTravel"/><circle cx="725.0" cy="361.0" r="9.22657256838395" class="planetAnnualTravel"/><circle cx="737.2002166847685" cy="357.27326800818906" r="1.740473966569604" class="planetDisc"/><circle cx="716.1759280939203" cy="363.695439918824" r="1.740473966569604" class="planetDisc"/><text x="725.0" y="414.0" text-anchor="middle" class="starName">HD 177830</text><rect x="770.0" y="316.0" width="90.0" height="108.0" class="starBox"/><circle cx="815.0" cy="361.0" r="3.099657330801633" class="starDisc starDiscG"/><circle cx="815.0" cy="361.0" r="13.667625269687042" class="planetOrbit"/><path d="M 818.7026387979811 347.8434637368237 A 13.667625269687042 13.667625269687042 0 1 0 822.6130684462806 372.35099860562207" class="planetAnnualTravel"/><circle cx="818.7026387979811" cy="347.8434637368237" r="1.740473966569604" class="planetDisc"/><text x="815.0" y="414.0" text-anchor="middle" class="starName">HD 222582</text><rect x="860.0" y="316.0" width="90.0" height="108.0" class="starBox"/><circle cx="905.0" cy="361.0" r="2.5" class="starDisc starDiscK"/><circle cx="905.0" cy="361.0" r="5.397909855095117" class="planetAnnualTravel"/><circle cx="901.4177641162318" cy="356.9620528883136" r="1.740473966569604" class="planetDisc"/><text x="905.0" y="414.0" text-anchor="middle" class="starName">HD 46375</text><rect x="50.0" y="424.0" width="90.0" height="108.0" class="starBox"/><circle cx="95.0" cy="469.0" r="3.013197887765301" class="starDisc starDiscK"/><circle cx="95.0" cy="469.0" r="5.3998706966945305" class="planetAnnualTravel"/><circle cx="89.66475698565345" cy="469.83293788417063" r="1.740473966569604" class="planetDisc"/><text x="95.0" y="522.0" text-anchor="middle" class="starName">BD-10 3166</text><rect x="140.0" y="424.0" width="90.0" height="108.0" class="starBox"/><circle cx="185.0" cy="469.0" r="2.5" class="starDisc starDiscG"/><circle cx="185.0" cy="469.0" r="9.26891761653076" class="planetAnnualTravel"/><circle cx="181.25500835152343" cy="477.4786715548413" r="1.740473966569604" class="planetDisc"/><text x="185.0" y="522.0" text-anchor="middle" class="starName">HD 52265</text><rect x="230.0" y="424.0" width="90.0" height="108.0" class="starBox"/><circle cx="275.0" cy="469.0" r="2.5" class="starDisc starDiscK"/><circle cx="275.0" cy="469.0" r="20.082347084410454" class="planetOrbit"/><path d="M 286.0739420043002 485.753163071615 A 20.082347084410454 20.082347084410454 0 0 0 295.03300924881256 470.4068421573578" class="planetAnnualTravel"/><circle cx="286.0739420043002" cy="485.753163071615" r="1.740473966569604" class="planetDisc"/><text x="275.0" y="522.0" text-anchor="middle" class="starName">eps Eri</text><rect x="320.0" y="424.0" width="90.0" height="108.0" class="starBox"/><circle cx="365.0" cy="469.0" r="3.1253015371159956" class="starDisc starDiscK"/><circle cx="365.0" cy="469.0" r="11.216801387355343" class="planetAnnualTravel"/><circle cx="365.0" cy="469.0" r="18.64969380391034" class="planetOrbit"/><path d="M 346.35194997810106 469.24760727042207 A 18.64969380391034 18.64969380391034 0 0 0 361.0247613832708 487.22110196776464" class="planetAnnualTravel"/><circle cx="376.2158127396843" cy="468.85107736332884" r="1.740473966569604" class="planetDisc"/><circle cx="346.35194997810106" cy="469.24760727042207" r="1.740473966569604" class="planetDisc"/><text x="365.0" y="522.0" text-anchor="middle" class="starName">HD 12661</text><rect x="410.0" y="424.0" width="90.0" height="108.0" class="starBox"/><circle cx="455.0" cy="469.0" r="2.5" class="starDisc starDiscF"/><circle cx="455.0" cy="469.0" r="5.44193783138266" class="planetAnnualTravel"/><circle cx="457.8792350855261" cy="464.38213331906286" r="1.740473966569604" class="planetDisc"/><text x="455.0" y="522.0" text-anchor="middle" class="starName">HD 179949</text><rect x="500.0" y="424.0" width="90.0" height="108.0" class="starBox"/><circle cx="545.0" cy="469.0" r="3.507008445080457" class="starDisc starDiscG"/><circle cx="545.0" cy="469.0" r="6.240642225026115" class="planetAnnualTravel"/><circle cx="545.0" cy="469.0" r="20.647020503078636" class="planetOrbit"/><path d="M 553.84069635615 487.65855148699666 A 20.647020503078636 20.647020503078636 0 0 0 565.6161459550169 470.1287079409621" class="planetAnnualTravel"/><circle cx="542.3278651527179" cy="463.36038026647896" r="1.740473966569604" class="planetDisc"/><circle cx="553.84069635615" cy="487.65855148699666" r="1.740473966569604" class="planetDisc"/><text x="545.0" y="522.0" text-anchor="middle" class="starName">HD 38529</text><rect x="590.0" y="424.0" width="90.0" height="108.0" class="starBox"/><circle cx="635.0" cy="469.0" r="3.1033719491461516" class="starDisc starDiscG"/><circle cx="635.0" cy="469.0" r="11.912820377897146" class="planetAnnualTravel"/><circle cx="635.0" cy="469.0" r="29.900694864626562" class="planetOrbit"/><path d="M 664.6548768699918 472.8262032373007 A 29.900694864626562 29.900694864626562 0 0 0 664.8291402832609 466.93264822803536" class="planetAnnualTravel"/><circle cx="623.1851166643354" cy="467.47559155057576" r="1.740473966569604" class="planetDisc"/><circle cx="664.6548768699918" cy="472.8262032373007" r="1.740473966569604" class="planetDisc"/><text x="635.0" y="522.0" text-anchor="middle" class="starName">HD 92788</text><rect x="680.0" y="424.0" width="90.0" height="108.0" class="starBox"/><circle cx="725.0" cy="469.0" r="2.5" class="starDisc starDiscG"/><circle cx="725.0" cy="469.0" r="14.329704917035077" class="planetOrbit"/><path d="M 715.7782884461346 479.96815750372895 A 14.329704917035077 14.329704917035077 0 1 0 728.8971212835442 455.2104065066933" class="planetAnnualTravel"/><circle cx="725.0" cy="469.0" r="23.659395117390677" class="planetOrbit"/><path d="M 743.1092334833779 484.2257229702013 A 23.659395117390677 23.659395117390677 0 0 0 748.380026674568 472.62509724246155" class="planetAnnualTravel"/><circle cx="725.0" cy="469.0" r="5.887404298601359" class="planetAnnualTravel"/><circle cx="725.0" cy="469.0" r="11.656022223858802" class="planetAnnualTravel"/><circle cx="715.7782884461346" cy="479.96815750372895" r="1.740473966569604" class="planetDisc"/><circle cx="743.1092334833779" cy="484.2257229702013" r="1.740473966569604" class="planetDisc"/><circle cx="728.7887691726398" cy="464.4936980203671" r="1.740473966569604" class="planetDisc"/><circle cx="716.0783168000713" cy="461.4989052156902" r="1.740473966569604" class="planetDisc"/><text x="725.0" y="522.0" text-anchor="middle" class="starName">HD 160691</text><rect x="770.0" y="424.0" width="90.0" height="108.0" class="starBox"/><circle cx="815.0" cy="469.0" r="2.5" class="starDisc starDiscK"/><circle cx="815.0" cy="469.0" r="13.362470278812184" class="planetOrbit"/><path d="M 818.9602163245779 481.7621431826588 A 13.362470278812184 13.362470278812184 0 1 0 807.1792183273643 479.83471208575037" class="planetAnnualTravel"/><circle cx="818.9602163245779" cy="481.7621431826588" r="1.740473966569604" class="planetDisc"/><text x="815.0" y="522.0" text-anchor="middle" class="starName">HD 27442</text><rect x="860.0" y="424.0" width="90.0" height="108.0" class="starBox"/><circle cx="905.0" cy="469.0" r="3.0090347833674196" class="starDisc starDiscG"/><circle cx="905.0" cy="469.0" r="9.065680404364429" class="planetAnnualTravel"/><circle cx="913.7374609472525" cy="471.41729960685774" r="1.740473966569604" class="planetDisc"/><text x="905.0" y="522.0" text-anchor="middle" class="starName">GJ 3021</text><rect x="50.0" y="532.0" width="90.0" height="108.0" class="starBox"/><circle cx="95.0" cy="577.0" r="2.5" class="starDisc starDiscF"/><circle cx="95.0" cy="577.0" r="11.049202064774946" class="planetAnnualTravel"/><circle cx="95.0" cy="577.0" r="20.558748125990952" class="planetOrbit"/><path d="M 79.68140620834404 590.7114116251455 A 20.558748125990952 20.558748125990952 0 0 0 100.09296587465629 596.9179271789893" class="planetAnnualTravel"/><circle cx="103.2329058712594" cy="569.6308665921148" r="1.740473966569604" class="planetDisc"/><circle cx="79.68140620834404" cy="590.7114116251455" r="1.740473966569604" class="planetDisc"/><text x="95.0" y="630.0" text-anchor="middle" class="starName">HD 169830</text><rect x="140.0" y="532.0" width="90.0" height="108.0" class="starBox"/><circle cx="185.0" cy="577.0" r="3.0654187951686103" class="starDisc starDiscG"/><circle cx="185.0" cy="577.0" r="12.066909898326662" class="planetAnnualTravel"/><circle cx="183.08591454770146" cy="565.0858658990411" r="3.739586110887761" class="planetDisc"/><text x="185.0" y="630.0" text-anchor="middle" class="starName">HD 80606</text><rect x="230.0" y="532.0" width="90.0" height="108.0" class="starBox"/><circle cx="275.0" cy="577.0" r="3.2298482442426932" class="starDisc starDiscG"/><circle cx="275.0" cy="577.0" r="15.819930153171027" class="planetOrbit"/><path d="M 260.5006931280985 570.6722602545901 A 15.819930153171027 15.819930153171027 0 0 0 284.1381032546278 589.9137623858801" class="planetAnnualTravel"/><circle cx="260.5006931280985" cy="570.6722602545901" r="1.740473966569604" class="planetDisc"/><text x="275.0" y="630.0" text-anchor="middle" class="starName">HD 213240</text><rect x="320.0" y="532.0" width="90.0" height="108.0" class="starBox"/><circle cx="365.0" cy="577.0" r="3.061521639578675" class="starDisc starDiscG"/><circle cx="365.0" cy="577.0" r="12.168357460359697" class="planetOrbit"/><path d="M 354.87866760519654 583.7548170839034 A 12.168357460359697 12.168357460359697 0 1 0 353.59632610789157 581.2456030249585" class="planetAnnualTravel"/><circle cx="354.87866760519654" cy="583.7548170839034" r="1.740473966569604" class="planetDisc"/><text x="365.0" y="630.0" text-anchor="middle" class="starName">HD 28185</text><rect x="410.0" y="532.0" width="90.0" height="108.0" class="starBox"/><circle cx="455.0" cy="577.0" r="2.5" class="starDisc starDiscK"/><circle cx="455.0" cy="577.0" r="12.851558178870878" class="planetOrbit"/><path d="M 455.2274973203702 589.8495444508405 A 12.851558178870878 12.851558178870878 0 1 0 442.16413929531296 576.3649979568737" class="planetAnnualTravel"/><circle cx="455.0" cy="577.0" r="12.066909898326662" class="planetOrbit"/><path d="M 454.786392464726 564.9349808821034 A 12.066909898326662 12.066909898326662 0 0 0 448.7061926705119 566.7044522344066" class="planetAnnualTravel"/><circle cx="455.2274973203702" cy="589.8495444508405" r="1.740473966569604" class="planetDisc"/><circle cx="454.786392464726" cy="564.9349808821034" r="1.740473966569604" class="planetDisc"/><text x="455.0" y="630.0" text-anchor="middle" class="starName">HD 114783</text><rect x="500.0" y="532.0" width="90.0" height="108.0" class="starBox"/><circle cx="545.0" cy="577.0" r="3.0808186881047184" class="starDisc starDiscG"/><circle cx="545.0" cy="577.0" r="7.983882571927198" class="planetAnnualTravel"/><circle cx="551.7935138199193" cy="581.194109071172" r="1.740473966569604" class="planetDisc"/><text x="545.0" y="630.0" text-anchor="middle" class="starName">HD 178911 B</text><rect x="590.0" y="532.0" width="90.0" height="108.0" class="starBox"/><circle cx="635.0" cy="577.0" r="3.2008891401119417" class="starDisc starDiscG"/><circle cx="635.0" cy="577.0" r="12.89865016035353" class="planetOrbit"/><path d="M 646.6318524150053 571.4254878819107 A 12.89865016035353 12.89865016035353 0 1 0 646.154431929561 583.4771771851616" class="planetAnnualTravel"/><circle cx="635.0" cy="577.0" r="26.13680850838775" class="planetOrbit"/><path d="M 611.4301306424077 588.2957521870021 A 26.13680850838775 26.13680850838775 0 0 0 616.5888724279345 595.5516344436079" class="planetAnnualTravel"/><circle cx="646.6318524150053" cy="571.4254878819107" r="1.740473966569604" class="planetDisc"/><circle cx="611.4301306424077" cy="588.2957521870021" r="1.740473966569604" class="planetDisc"/><text x="635.0" y="630.0" text-anchor="middle" class="starName">HD 4203</text><rect x="680.0" y="532.0" width="90.0" height="108.0" class="starBox"/><circle cx="725.0" cy="577.0" r="2.98788500821032" class="starDisc starDiscG"/><circle cx="725.0" cy="577.0" r="14.982084937456293" class="planetOrbit"/><path d="M 726.8513830209556 562.1327457147303 A 14.982084937456293 14.982084937456293 0 0 0 717.6567263288192 590.0590658495659" class="planetAnnualTravel"/><circle cx="726.8513830209556" cy="562.1327457147303" r="1.740473966569604" class="planetDisc"/><text x="725.0" y="630.0" text-anchor="middle" class="starName">HD 4208</text><rect x="770.0" y="532.0" width="90.0" height="108.0" class="starBox"/><circle cx="815.0" cy="577.0" r="3.121688457670106" class="starDisc starDiscG"/><circle cx="815.0" cy="577.0" r="5.689806704862815" class="planetAnnualTravel"/><circle cx="810.6287794769585" cy="573.3577024452081" r="1.740473966569604" class="planetDisc"/><text x="815.0" y="630.0" text-anchor="middle" class="starName">HD 68988</text><rect x="860.0" y="532.0" width="90.0" height="108.0" class="starBox"/><circle cx="905.0" cy="577.0" r="3.088407928475296" class="starDisc starDiscG"/><circle cx="905.0" cy="577.0" r="18.087908913679417" class="planetOrbit"/><path d="M 887.7486088907066 582.437090551366 A 18.087908913679417 18.087908913679417 0 0 0 909.1670950755723 594.6013569789577" class="planetAnnualTravel"/><circle cx="887.7486088907066" cy="582.437090551366" r="1.740473966569604" class="planetDisc"/><text x="905.0" y="630.0" text-anchor="middle" class="starName">HD 106252</text><rect x="50.0" y="640.0" width="90.0" height="108.0" class="starBox"/><circle cx="95.0" cy="685.0" r="3.217107896896393" class="starDisc starDiscG"/><circle cx="95.0" cy="685.0" r="12.168357460359697" class="planetAnnualTravel"/><circle cx="95.0" cy="685.0" r="25.94260462015306" class="planetOrbit"/><path d="M 101.80668709191144 659.9662678509497 A 25.94260462015306 25.94260462015306 0 0 0 91.98641518624133 659.2330242161042" class="planetAnnualTravel"/><circle cx="91.80732899152102" cy="696.7420515717956" r="1.740473966569604" class="planetDisc"/><circle cx="101.80668709191144" cy="659.9662678509497" r="1.740473966569604" class="planetDisc"/><text x="95.0" y="738.0" text-anchor="middle" class="starName">HD 142</text><rect x="140.0" y="640.0" width="90.0" height="108.0" class="starBox"/><circle cx="185.0" cy="685.0" r="3.076996658699338" class="starDisc starDiscF"/><circle cx="185.0" cy="685.0" r="14.74181743533014" class="planetOrbit"/><path d="M 194.88039615011482 695.9407016782928 A 14.74181743533014 14.74181743533014 0 0 0 175.14786288445433 674.0338440849544" class="planetAnnualTravel"/><circle cx="194.88039615011482" cy="695.9407016782928" r="1.740473966569604" class="planetDisc"/><text x="185.0" y="738.0" text-anchor="middle" class="starName">HD 23079</text><rect x="230.0" y="640.0" width="90.0" height="108.0" class="starBox"/><circle cx="275.0" cy="685.0" r="3.0576052386979202" class="starDisc starDiscF"/><circle cx="275.0" cy="685.0" r="17.334955430102244" class="planetOrbit"/><path d="M 292.1031453341309 682.1745620793889 A 17.334955430102244 17.334955430102244 0 0 0 268.7863900372463 668.8169307300994" class="planetAnnualTravel"/><circle cx="292.1031453341309" cy="682.1745620793889" r="1.740473966569604" class="planetDisc"/><text x="275.0" y="738.0" text-anchor="middle" class="starName">HD 50554</text><rect x="320.0" y="640.0" width="90.0" height="108.0" class="starBox"/><circle cx="365.0" cy="685.0" r="2.5" class="starDisc starDiscF"/><circle cx="365.0" cy="685.0" r="5.990245264938353" class="planetAnnualTravel"/><circle cx="367.37168875614674" cy="679.4992608880185" r="1.740473966569604" class="planetDisc"/><text x="365.0" y="738.0" text-anchor="middle" class="starName">HD 108147</text><rect x="410.0" y="640.0" width="90.0" height="108.0" class="starBox"/><circle cx="455.0" cy="685.0" r="3.0846223863633657" class="starDisc starDiscG"/><circle cx="455.0" cy="685.0" r="5.689806704862815" class="planetAnnualTravel"/><circle cx="451.8205983232402" cy="680.2813873525666" r="1.740473966569604" class="planetDisc"/><text x="455.0" y="738.0" text-anchor="middle" class="starName">HD 168746</text><rect x="500.0" y="640.0" width="90.0" height="108.0" class="starBox"/><circle cx="545.0" cy="685.0" r="3.061521639578675" class="starDisc starDiscG"/><circle cx="545.0" cy="685.0" r="14.34194673863561" class="planetOrbit"/><path d="M 530.6615645520153 685.3173407598077 A 14.34194673863561 14.34194673863561 0 1 0 558.2573824382606 679.52887149305" class="planetAnnualTravel"/><circle cx="530.6615645520153" cy="685.3173407598077" r="1.740473966569604" class="planetDisc"/><text x="545.0" y="738.0" text-anchor="middle" class="starName">HD 141937</text><rect x="590.0" y="640.0" width="90.0" height="108.0" class="starBox"/><circle cx="635.0" cy="685.0" r="2.943814250435471" class="starDisc starDiscK"/><circle cx="635.0" cy="685.0" r="5.784648280544214" class="planetAnnualTravel"/><circle cx="631.9830108925619" cy="689.9355782290631" r="1.740473966569604" class="planetDisc"/><text x="635.0" y="738.0" text-anchor="middle" class="starName">HD 162020</text><rect x="680.0" y="640.0" width="90.0" height="108.0" class="starBox"/><circle cx="725.0" cy="685.0" r="3.088407928475296" class="starDisc starDiscG"/><circle cx="725.0" cy="685.0" r="19.385570756946453" class="planetOrbit"/><path d="M 733.4553027245429 702.4444320460402 A 19.385570756946453 19.385570756946453 0 0 0 744.3800940709282 685.4607682438603" class="planetAnnualTravel"/><circle cx="725.0" cy="685.0" r="5.6744544160438295" class="planetAnnualTravel"/><circle cx="733.4553027245429" cy="702.4444320460402" r="1.740473966569604" class="planetDisc"/><circle cx="722.5250029784613" cy="679.8937467098533" r="2.1884756391622755" class="planetDisc"/><text x="725.0" y="738.0" text-anchor="middle" class="starName">HD 39091</text><rect x="770.0" y="640.0" width="90.0" height="108.0" class="starBox"/><circle cx="815.0" cy="685.0" r="2.5" class="starDisc starDiscK"/><circle cx="815.0" cy="685.0" r="13.38041202715511" class="planetOrbit"/><path d="M 828.2850451218637 686.5946793177574 A 13.38041202715511 13.38041202715511 0 1 0 810.4782632604771 697.5932252769053" class="planetAnnualTravel"/><circle cx="828.2850451218637" cy="686.5946793177574" r="1.740473966569604" class="planetDisc"/><text x="815.0" y="738.0" text-anchor="middle" class="starName">iot Dra</text><rect x="860.0" y="640.0" width="90.0" height="108.0" class="starBox"/><circle cx="905.0" cy="685.0" r="3.0255576636392663" class="starDisc starDiscK"/><circle cx="905.0" cy="685.0" r="5.3998706966945305" class="planetAnnualTravel"/><circle cx="908.4383029062222" cy="680.8362664991521" r="1.740473966569604" class="planetDisc"/><text x="905.0" y="738.0" text-anchor="middle" class="starName">HD 83443</text><rect x="50.0" y="748.0" width="90.0" height="108.0" class="starBox"/><circle cx="95.0" cy="793.0" r="3.2008891401119417" class="starDisc starDiscG"/><circle cx="95.0" cy="793.0" r="17.801502556183294" class="planetOrbit"/><path d="M 89.57391294929707 776.0456178945974 A 17.801502556183294 17.801502556183294 0 0 0 78.6260827837924 799.9848642259232" class="planetAnnualTravel"/><circle cx="89.57391294929707" cy="776.0456178945974" r="1.740473966569604" class="planetDisc"/><text x="95.0" y="846.0" text-anchor="middle" class="starName">HD 196050</text><rect x="140.0" y="748.0" width="90.0" height="108.0" class="starBox"/><circle cx="185.0" cy="793.0" r="3.1909962521647084" class="starDisc starDiscG"/><circle cx="185.0" cy="793.0" r="17.763671730348126" class="planetOrbit"/><path d="M 167.83820108071495 788.4151672661268 A 17.763671730348126 17.763671730348126 0 0 0 182.99606623820873 810.6502771315899" class="planetAnnualTravel"/><circle cx="167.83820108071495" cy="788.4151672661268" r="1.740473966569604" class="planetDisc"/><text x="185.0" y="846.0" text-anchor="middle" class="starName">HD 216437</text><rect x="230.0" y="748.0" width="90.0" height="108.0" class="starBox"/><circle cx="275.0" cy="793.0" r="3.0214591037851855" class="starDisc starDiscK"/><circle cx="275.0" cy="793.0" r="18.953820742928485" class="planetOrbit"/><path d="M 260.98970157907763 805.7655340237596 A 18.953820742928485 18.953820742928485 0 0 0 283.43739748238403 809.9722610302613" class="planetAnnualTravel"/><circle cx="260.98970157907763" cy="805.7655340237596" r="1.740473966569604" class="planetDisc"/><text x="275.0" y="846.0" text-anchor="middle" class="starName">14 Her</text><rect x="320.0" y="748.0" width="90.0" height="108.0" class="starBox"/><circle cx="365.0" cy="793.0" r="3.0692968936868614" class="starDisc starDiscG"/><circle cx="365.0" cy="793.0" r="12.268805522772823" class="planetOrbit"/><path d="M 367.0532545401426 805.0957734250028 A 12.268805522772823 12.268805522772823 0 1 0 361.3576595832578 804.7156709259089" class="planetAnnualTravel"/><circle cx="365.0" cy="793.0" r="18.22536439986544" class="planetOrbit"/><path d="M 361.9498813775866 775.0316755400763 A 18.22536439986544 18.22536439986544 0 0 0 346.7754614301243 793.1734976166903" class="planetAnnualTravel"/><circle cx="367.0532545401426" cy="805.0957734250028" r="1.740473966569604" class="planetDisc"/><circle cx="361.9498813775866" cy="775.0316755400763" r="1.740473966569604" class="planetDisc"/><text x="365.0" y="846.0" text-anchor="middle" class="starName">HD 108874</text><rect x="410.0" y="748.0" width="90.0" height="108.0" class="starBox"/><circle cx="455.0" cy="793.0" r="3.217107896896393" class="starDisc starDiscG"/><circle cx="455.0" cy="793.0" r="16.42597897447375" class="planetOrbit"/><path d="M 470.11232835938887 799.4366386280313 A 16.42597897447375 16.42597897447375 0 0 0 453.8358470709207 776.6153262703351" class="planetAnnualTravel"/><circle cx="470.11232835938887" cy="799.4366386280313" r="1.740473966569604" class="planetDisc"/><text x="455.0" y="846.0" text-anchor="middle" class="starName">HD 114729</text><rect x="500.0" y="748.0" width="90.0" height="108.0" class="starBox"/><circle cx="545.0" cy="793.0" r="2.948333177571691" class="starDisc starDiscK"/><circle cx="545.0" cy="793.0" r="12.486368297232076" class="planetOrbit"/><path d="M 555.3240874108275 785.9769940632436 A 12.486368297232076 12.486368297232076 0 1 0 555.1373953642259 800.2898977004821" class="planetAnnualTravel"/><circle cx="545.0" cy="793.0" r="15.27653001346276" class="planetOrbit"/><path d="M 532.3689268617777 801.5923431396277 A 15.27653001346276 15.27653001346276 0 0 0 560.2529091119175 793.8491954285159" class="planetAnnualTravel"/><circle cx="555.3240874108275" cy="785.9769940632436" r="1.740473966569604" class="planetDisc"/><circle cx="532.3689268617777" cy="801.5923431396277" r="1.740473966569604" class="planetDisc"/><text x="545.0" y="846.0" text-anchor="middle" class="starName">HD 128311</text><rect x="590.0" y="748.0" width="90.0" height="108.0" class="starBox"/><circle cx="635.0" cy="793.0" r="2.5" class="starDisc starDiscG"/><circle cx="635.0" cy="793.0" r="9.359999816460245" class="planetAnnualTravel"/><circle cx="635.0" cy="793.0" r="15.164285989517156" class="planetOrbit"/><path d="M 622.0732875891463 800.9281571515043 A 15.164285989517156 15.164285989517156 0 0 0 650.1642681797301 793.0232410216955" class="planetAnnualTravel"/><circle cx="635.0" cy="793.0" r="18.6296280704805" class="planetOrbit"/><path d="M 651.3753623835808 801.8831609717962 A 18.6296280704805 18.6296280704805 0 0 0 648.8247549142417 780.5124384443725" class="planetAnnualTravel"/><circle cx="634.7514812032089" cy="783.6432999956301" r="1.740473966569604" class="planetDisc"/><circle cx="622.0732875891463" cy="800.9281571515043" r="1.740473966569604" class="planetDisc"/><circle cx="651.3753623835808" cy="801.8831609717962" r="1.740473966569604" class="planetDisc"/><text x="635.0" y="846.0" text-anchor="middle" class="starName">HD 37124</text><rect x="680.0" y="748.0" width="90.0" height="108.0" class="starBox"/><circle cx="725.0" cy="793.0" r="3.0576052386979202" class="starDisc starDiscG"/><circle cx="725.0" cy="793.0" r="5.594074584929224" class="planetAnnualTravel"/><circle cx="720.214157428715" cy="790.1035571221537" r="1.740473966569604" class="planetDisc"/><text x="725.0" y="846.0" text-anchor="middle" class="starName">HD 49674</text><rect x="770.0" y="748.0" width="90.0" height="108.0" class="starBox"/><circle cx="815.0" cy="793.0" r="3.2138905717266857" class="starDisc starDiscG"/><circle cx="815.0" cy="793.0" r="22.8337849662999" class="planetOrbit"/><path d="M 794.4969124238523 803.0501311300919 A 22.8337849662999 22.8337849662999 0 0 0 804.2922498907124 813.1674446443835" class="planetAnnualTravel"/><circle cx="794.4969124238523" cy="803.0501311300919" r="1.740473966569604" class="planetDisc"/><text x="815.0" y="846.0" text-anchor="middle" class="starName">HD 72659</text><rect x="860.0" y="748.0" width="90.0" height="108.0" class="starBox"/><circle cx="905.0" cy="793.0" r="2.5" class="starDisc starDiscF"/><circle cx="905.0" cy="793.0" r="5.240106641869058" class="planetAnnualTravel"/><circle cx="904.398515334909" cy="798.2054715267515" r="3.9802977908538253" class="planetDisc"/><text x="905.0" y="846.0" text-anchor="middle" class="starName">OGLE-TR-56</text><rect x="50.0" y="856.0" width="90.0" height="108.0" class="starBox"/><circle cx="95.0" cy="901.0" r="5.0" class="starDisc starDiscK"/><circle cx="95.0" cy="901.0" r="15.960075258318982" class="planetOrbit"/><path d="M 107.35135351937568 911.1078221437959 A 15.960075258318982 15.960075258318982 0 1 0 81.89098964843684 891.8962727493727" class="planetAnnualTravel"/><circle cx="107.35135351937568" cy="911.1078221437959" r="1.740473966569604" class="planetDisc"/><text x="95.0" y="954.0" text-anchor="middle" class="starName">HD 47536</text><rect x="140.0" y="856.0" width="90.0" height="108.0" class="starBox"/><circle cx="185.0" cy="901.0" r="3.121688457670106" class="starDisc starDiscG"/><circle cx="185.0" cy="901.0" r="16.858782956344378" class="planetOrbit"/><path d="M 201.03362397883686 895.7902528972708 A 16.858782956344378 16.858782956344378 0 0 0 173.01228029404865 889.1461761856913" class="planetAnnualTravel"/><circle cx="201.03362397883686" cy="895.7902528972708" r="1.740473966569604" class="planetDisc"/><text x="185.0" y="954.0" text-anchor="middle" class="starName">HD 2039</text><rect x="230.0" y="856.0" width="90.0" height="108.0" class="starBox"/><circle cx="275.0" cy="901.0" r="3.0576052386979202" class="starDisc starDiscG"/><circle cx="275.0" cy="901.0" r="20.78668564419935" class="planetOrbit"/><path d="M 280.276146450888 880.8940660823839 A 20.78668564419935 20.78668564419935 0 0 0 262.4100130286993 884.4597905656173" class="planetAnnualTravel"/><circle cx="275.0" cy="901.0" r="29.345024395732256" class="planetOrbit"/><path d="M 267.55154722754133 929.3839921096835 A 29.345024395732256 29.345024395732256 0 0 0 273.26529264735444 930.2937066139947" class="planetAnnualTravel"/><circle cx="280.276146450888" cy="880.8940660823839" r="1.740473966569604" class="planetDisc"/><circle cx="267.55154722754133" cy="929.3839921096835" r="1.740473966569604" class="planetDisc"/><text x="275.0" y="954.0" text-anchor="middle" class="starName">HD 30177</text><rect x="320.0" y="856.0" width="90.0" height="108.0" class="starBox"/><circle cx="365.0" cy="901.0" r="3.12889823065776" class="starDisc starDiscF"/><circle cx="365.0" cy="901.0" r="11.272061120818776" class="planetAnnualTravel"/><circle cx="357.3713851371101" cy="892.70159068344" r="1.740473966569604" class="planetDisc"/><text x="365.0" y="954.0" text-anchor="middle" class="starName">HD 40979</text><rect x="410.0" y="856.0" width="90.0" height="108.0" class="starBox"/><circle cx="455.0" cy="901.0" r="3.23614248019138" class="starDisc starDiscG"/><circle cx="455.0" cy="901.0" r="10.105602299539466" class="planetAnnualTravel"/><circle cx="455.0" cy="901.0" r="12.218705196576943" class="planetOrbit"/><path d="M 467.0372117321717 898.9018364230299 A 12.218705196576943 12.218705196576943 0 1 0 467.1958898059987 901.7463434335431" class="planetAnnualTravel"/><circle cx="445.04450368482935" cy="902.7353071644759" r="1.740473966569604" class="planetDisc"/><circle cx="467.0372117321717" cy="898.9018364230299" r="1.740473966569604" class="planetDisc"/><text x="455.0" y="954.0" text-anchor="middle" class="starName">HD 73526</text><rect x="500.0" y="856.0" width="90.0" height="108.0" class="starBox"/><circle cx="545.0" cy="901.0" r="3.1843317628059364" class="starDisc starDiscG"/><circle cx="545.0" cy="901.0" r="5.497435038012282" class="planetAnnualTravel"/><circle cx="542.8681956504025" cy="906.0672677265171" r="1.740473966569604" class="planetDisc"/><text x="545.0" y="954.0" text-anchor="middle" class="starName">HD 76700</text><rect x="590.0" y="856.0" width="90.0" height="108.0" class="starBox"/><circle cx="635.0" cy="901.0" r="2.5" class="starDisc starDiscG"/><circle cx="635.0" cy="901.0" r="17.945711408296773" class="planetOrbit"/><path d="M 645.1592042778076 915.7932121728734 A 17.945711408296773 17.945711408296773 0 0 0 647.7540228768765 888.3752838286961" class="planetAnnualTravel"/><circle cx="645.1592042778076" cy="915.7932121728734" r="1.740473966569604" class="planetDisc"/><text x="635.0" y="954.0" text-anchor="middle" class="starName">HD 216435</text><rect x="680.0" y="856.0" width="90.0" height="108.0" class="starBox"/><circle cx="725.0" cy="901.0" r="2.5" class="starDisc starDiscK"/><circle cx="725.0" cy="901.0" r="7.635618872334799" class="planetAnnualTravel"/><circle cx="732.6319549861381" cy="900.7634864631419" r="1.740473966569604" class="planetDisc"/><text x="725.0" y="954.0" text-anchor="middle" class="starName">HD 3651</text><rect x="770.0" y="856.0" width="90.0" height="108.0" class="starBox"/><circle cx="815.0" cy="901.0" r="2.5" class="starDisc starDiscM"/><circle cx="815.0" cy="901.0" r="12.066909898326662" class="planetAnnualTravel"/><circle cx="821.2021317180827" cy="890.6489673633068" r="1.740473966569604" class="planetDisc"/><text x="815.0" y="954.0" text-anchor="middle" class="starName">HD 41004 B</text><rect x="860.0" y="856.0" width="90.0" height="108.0" class="starBox"/><circle cx="905.0" cy="901.0" r="2.5" class="starDisc starDiscO"/><circle cx="905.0" cy="901.0" r="37.401516879802905" class="planetAnnualTravel"/><circle cx="888.3895125248018" cy="867.4893275097847" r="1.740473966569604" class="planetDisc"/><text x="905.0" y="954.0" text-anchor="middle" class="starName">PSR B1620-26</text><rect x="50.0" y="964.0" width="90.0" height="108.0" class="starBox"/><circle cx="95.0" cy="1009.0" r="3.0417433186198997" class="starDisc starDiscG"/><circle cx="95.0" cy="1009.0" r="19.9137468935685" class="planetOrbit"/><path d="M 75.20795290538041 1006.8017763659105 A 19.9137468935685 19.9137468935685 0 0 0 83.72389302298639 1025.4136140683293" class="planetAnnualTravel"/><circle cx="75.20795290538041" cy="1006.8017763659105" r="1.740473966569604" class="planetDisc"/><text x="95.0" y="1062.0" text-anchor="middle" class="starName">HD 70642</text><rect x="140.0" y="964.0" width="90.0" height="108.0" class="starBox"/><circle cx="185.0" cy="1009.0" r="4.470703839944276" class="starDisc starDiscG"/><circle cx="185.0" cy="1009.0" r="11.808784823499732" class="planetAnnualTravel"/><circle cx="177.56178821270714" cy="1018.171717637122" r="1.740473966569604" class="planetDisc"/><text x="185.0" y="1062.0" text-anchor="middle" class="starName">HD 104985</text><rect x="230.0" y="964.0" width="90.0" height="108.0" class="starBox"/><circle cx="275.0" cy="1009.0" r="3.1033719491461516" class="starDisc starDiscG"/><circle cx="275.0" cy="1009.0" r="21.347500007260614" class="planetOrbit"/><path d="M 281.68665143526454 1029.2732446624427 A 21.347500007260614 21.347500007260614 0 0 0 294.0763551646579 1018.5816715760781" class="planetAnnualTravel"/><circle cx="275.0" cy="1009.0" r="6.249665498351382" class="planetAnnualTravel"/><circle cx="281.68665143526454" cy="1029.2732446624427" r="1.740473966569604" class="planetDisc"/><circle cx="273.0424248853373" cy="1003.0648320569898" r="1.740473966569604" class="planetDisc"/><text x="275.0" y="1062.0" text-anchor="middle" class="starName">HD 190360</text><rect x="320.0" y="964.0" width="90.0" height="108.0" class="starBox"/><circle cx="365.0" cy="1009.0" r="3.23614248019138" class="starDisc starDiscF"/><circle cx="365.0" cy="1009.0" r="18.530054982064392" class="planetOrbit"/><path d="M 382.9438467068636 1013.6239921062768 A 18.530054982064392 18.530054982064392 0 0 0 371.420695120967 991.6178939192652" class="planetAnnualTravel"/><circle cx="382.9438467068636" cy="1013.6239921062768" r="1.740473966569604" class="planetDisc"/><text x="365.0" y="1062.0" text-anchor="middle" class="starName">HD 23596</text><rect x="410.0" y="964.0" width="90.0" height="108.0" class="starBox"/><circle cx="455.0" cy="1009.0" r="3.1876710080199526" class="starDisc starDiscF"/><circle cx="455.0" cy="1009.0" r="10.763598071060926" class="planetAnnualTravel"/><circle cx="462.8917659148614" cy="1001.68050041462" r="1.740473966569604" class="planetDisc"/><text x="455.0" y="1062.0" text-anchor="middle" class="starName">HD 8574</text><rect x="500.0" y="964.0" width="90.0" height="108.0" class="starBox"/><circle cx="545.0" cy="1009.0" r="3.9076606917842085" class="starDisc starDiscK"/><circle cx="545.0" cy="1009.0" r="16.369309961583085" class="planetOrbit"/><path d="M 542.1177636003837 992.8864336053402 A 16.369309961583085 16.369309961583085 0 0 0 538.2398160898481 1023.9081931205396" class="planetAnnualTravel"/><circle cx="542.1177636003837" cy="992.8864336053402" r="1.740473966569604" class="planetDisc"/><text x="545.0" y="1062.0" text-anchor="middle" class="starName">gam Cep</text><rect x="590.0" y="964.0" width="90.0" height="108.0" class="starBox"/><circle cx="635.0" cy="1009.0" r="2.5" class="starDisc starDiscG"/><circle cx="635.0" cy="1009.0" r="7.611972794789613" class="planetAnnualTravel"/><circle cx="635.0" cy="1009.0" r="21.09831295892987" class="planetOrbit"/><path d="M 654.483415319459 1017.0953898734043 A 21.09831295892987 21.09831295892987 0 0 0 653.1656600852075 998.2693148689541" class="planetAnnualTravel"/><circle cx="627.9706594242864" cy="1006.0792978756394" r="1.740473966569604" class="planetDisc"/><circle cx="654.483415319459" cy="1017.0953898734043" r="1.740473966569604" class="planetDisc"/><text x="635.0" y="1062.0" text-anchor="middle" class="starName">HD 74156</text><rect x="680.0" y="964.0" width="90.0" height="108.0" class="starBox"/><circle cx="725.0" cy="1009.0" r="3.0090347833674196" class="starDisc starDiscG"/><circle cx="725.0" cy="1009.0" r="16.098320032223032" class="planetOrbit"/><path d="M 711.7701134577278 1018.172023219469 A 16.098320032223032 16.098320032223032 0 0 0 738.8982889463638 1017.1236366378154" class="planetAnnualTravel"/><circle cx="711.7701134577278" cy="1018.172023219469" r="1.740473966569604" class="planetDisc"/><text x="725.0" y="1062.0" text-anchor="middle" class="starName">HD 111232</text><rect x="770.0" y="964.0" width="90.0" height="108.0" class="starBox"/><circle cx="815.0" cy="1009.0" r="2.948333177571691" class="starDisc starDiscK"/><circle cx="815.0" cy="1009.0" r="15.239252473342418" class="planetOrbit"/><path d="M 815.5394436724861 1024.2297017853432 A 15.239252473342418 15.239252473342418 0 0 0 824.348922320163 996.9653638443936" class="planetAnnualTravel"/><circle cx="815.5394436724861" cy="1024.2297017853432" r="1.740473966569604" class="planetDisc"/><text x="815.0" y="1062.0" text-anchor="middle" class="starName">HD 114386</text><rect x="860.0" y="964.0" width="90.0" height="108.0" class="starBox"/><circle cx="905.0" cy="1009.0" r="3.076996658699338" class="starDisc starDiscG"/><circle cx="905.0" cy="1009.0" r="7.907512208355733" class="planetAnnualTravel"/><circle cx="911.8010093264952" cy="1013.0342312112991" r="1.740473966569604" class="planetDisc"/><text x="905.0" y="1062.0" text-anchor="middle" class="starName">HD 121504</text><rect x="50.0" y="1072.0" width="90.0" height="108.0" class="starBox"/><circle cx="95.0" cy="1117.0" r="3.0654187951686103" class="starDisc starDiscG"/><circle cx="95.0" cy="1117.0" r="12.36827358846633" class="planetOrbit"/><path d="M 106.0571953225878 1111.458102927941 A 12.36827358846633 12.36827358846633 0 1 0 107.28202634864213 1115.5419120978438" class="planetAnnualTravel"/><circle cx="106.0571953225878" cy="1111.458102927941" r="1.740473966569604" class="planetDisc"/><text x="95.0" y="1170.0" text-anchor="middle" class="starName">HD 142415</text><rect x="140.0" y="1072.0" width="90.0" height="108.0" class="starBox"/><circle cx="185.0" cy="1117.0" r="2.5" class="starDisc starDiscG"/><circle cx="185.0" cy="1117.0" r="13.580110604751972" class="planetOrbit"/><path d="M 186.43932213230315 1103.4963798988285 A 13.580110604751972 13.580110604751972 0 1 0 197.05566912552842 1123.251419516644" class="planetAnnualTravel"/><circle cx="186.43932213230315" cy="1103.4963798988285" r="1.740473966569604" class="planetDisc"/><text x="185.0" y="1170.0" text-anchor="middle" class="starName">HD 147513</text><rect x="230.0" y="1072.0" width="90.0" height="108.0" class="starBox"/><circle cx="275.0" cy="1117.0" r="2.5" class="starDisc starDiscG"/><circle cx="275.0" cy="1117.0" r="13.513978075375936" class="planetOrbit"/><path d="M 264.46631262471254 1108.5342434654988 A 13.513978075375936 13.513978075375936 0 1 0 281.1215542041213 1104.9520052478535" class="planetAnnualTravel"/><circle cx="264.46631262471254" cy="1108.5342434654988" r="1.740473966569604" class="planetDisc"/><text x="275.0" y="1170.0" text-anchor="middle" class="starName">HD 19994</text><rect x="320.0" y="1072.0" width="90.0" height="108.0" class="starBox"/><circle cx="365.0" cy="1117.0" r="3.0214591037851855" class="starDisc starDiscK"/><circle cx="365.0" cy="1117.0" r="8.858309271803456" class="planetAnnualTravel"/><circle cx="356.5998235157028" cy="1119.8118816098086" r="1.740473966569604" class="planetDisc"/><text x="365.0" y="1170.0" text-anchor="middle" class="starName">HD 216770</text><rect x="410.0" y="1072.0" width="90.0" height="108.0" class="starBox"/><circle cx="455.0" cy="1117.0" r="3.095925231835831" class="starDisc starDiscG"/><circle cx="455.0" cy="1117.0" r="6.335885004700356" class="planetAnnualTravel"/><circle cx="453.4461116229025" cy="1123.1423830639508" r="1.740473966569604" class="planetDisc"/><text x="455.0" y="1170.0" text-anchor="middle" class="starName">HD 6434</text><rect x="500.0" y="1072.0" width="90.0" height="108.0" class="starBox"/><circle cx="545.0" cy="1117.0" r="2.5" class="starDisc starDiscG"/><circle cx="545.0" cy="1117.0" r="13.496270045106264" class="planetOrbit"/><path d="M 554.2214846135611 1126.854619558983 A 13.496270045106264 13.496270045106264 0 1 0 531.5044506749613 1117.1394759688249" class="planetAnnualTravel"/><circle cx="545.0" cy="1117.0" r="24.468541757815434" class="planetOrbit"/><path d="M 528.2815822014626 1099.1337177323455 A 24.468541757815434 24.468541757815434 0 0 0 522.3828645671186 1107.6632596392176" class="planetAnnualTravel"/><circle cx="554.2214846135611" cy="1126.854619558983" r="1.740473966569604" class="planetDisc"/><circle cx="528.2815822014626" cy="1099.1337177323455" r="1.740473966569604" class="planetDisc"/><text x="545.0" y="1170.0" text-anchor="middle" class="starName">HD 65216</text><rect x="590.0" y="1072.0" width="90.0" height="108.0" class="starBox"/><circle cx="635.0" cy="1117.0" r="2.5" class="starDisc starDiscG"/><circle cx="635.0" cy="1117.0" r="12.959826560174" class="planetOrbit"/><path d="M 647.7471265875417 1114.6616526710134 A 12.959826560174 12.959826560174 0 1 0 642.9854239590177 1127.2073556156597" class="planetAnnualTravel"/><circle cx="635.0" cy="1117.0" r="10.667272987673273" class="planetAnnualTravel"/><circle cx="647.7471265875417" cy="1114.6616526710134" r="1.740473966569604" class="planetDisc"/><circle cx="624.5078010121217" cy="1118.9247008578766" r="1.740473966569604" class="planetDisc"/><text x="635.0" y="1170.0" text-anchor="middle" class="starName">HD 82943</text><rect x="680.0" y="1072.0" width="90.0" height="108.0" class="starBox"/><circle cx="725.0" cy="1117.0" r="2.5" class="starDisc starDiscK"/><circle cx="725.0" cy="1117.0" r="22.002931221891494" class="planetAnnualTravel"/><circle cx="733.3524829731203" cy="1096.6440423821668" r="1.740473966569604" class="planetDisc"/><text x="725.0" y="1170.0" text-anchor="middle" class="starName longName">OGLE-2003-BLG-235L</text><rect x="770.0" y="1072.0" width="90.0" height="108.0" class="starBox"/><circle cx="815.0" cy="1117.0" r="2.9528265015839343" class="starDisc starDiscK"/><circle cx="815.0" cy="1117.0" r="5.230741733345499" class="planetAnnualTravel"/><circle cx="812.0007875130359" cy="1112.7145147837145" r="3.760508667767817" class="planetDisc"/><text x="815.0" y="1170.0" text-anchor="middle" class="starName">OGLE-TR-113</text><rect x="860.0" y="1072.0" width="90.0" height="108.0" class="starBox"/><circle cx="905.0" cy="1117.0" r="3.1674213232632527" class="starDisc starDiscF"/><circle cx="905.0" cy="1117.0" r="5.304827556557488" class="planetAnnualTravel"/><circle cx="899.6993800513077" cy="1117.2112429036358" r="3.8530444068831486" class="planetDisc"/><text x="905.0" y="1170.0" text-anchor="middle" class="starName">OGLE-TR-132</text>
    <text x="50%" y="1230.0" text-anchor="middle" class="linkText">https://codebox.net/planetary-systems</text>
</svg>
